<?xml version="1.0" encoding="UTF-8"?>
<svg width="560px" height="680px" viewBox="0 0 560 680" version="1.1" xmlns="http://www.w3.org/2000/svg" xmlns:xlink="http://www.w3.org/1999/xlink">
    <title>hand</title>
    <defs>
    </defs>
    <g id="Page-1" stroke="none" stroke-width="1" fill="none" fill-rule="evenodd">
        <g>
            <path d="M120,260 L160,260 L160,200 L180,200 L180,180 L200,180 L200,160 L260,160 L260,180 L280,180 L280,220 L320,220 L320,180 L340,180 L340,160 L400,160 L400,180 L420,180 L420,220 L440,220 L440,20 L460,20 L460,0 L540,0 L540,20 L560,20 L560,480 L540,480 L540,540 L520,540 L520,580 L500,580 L500,600 L480,600 L480,620 L460,620 L460,640 L440,640 L440,660 L420,660 L420,680 L160,680 L160,660 L140,660 L140,640 L120,640 L120,620 L100,620 L100,600 L80,600 L80,580 L60,580 L60,540 L40,540 L40,340 L20,340 L20,300 L0,300 L0,60 L20,60 L20,40 L100,40 L100,60 L120,60 L120,260 Z M420,280 L400,280 L400,300 L380,300 L380,320 L360,320 L360,380 L380,380 L380,400 L400,400 L400,420 L420,420 L420,440 L440,440 L440,460 L460,460 L460,500 L480,500 L480,520 L520,520 L520,460 L540,460 L540,440 L520,440 L520,420 L500,420 L500,400 L480,400 L480,360 L460,360 L460,340 L440,340 L440,300 L420,300 L420,280 Z M380,420 L360,420 L360,440 L380,440 L380,420 Z M240,180 L220,180 L220,200 L200,200 L200,220 L180,220 L180,420 L200,420 L200,440 L240,440 L240,420 L260,420 L260,320 L280,320 L280,240 L260,240 L260,200 L240,200 L240,180 Z M380,180 L360,180 L360,200 L340,200 L340,240 L320,240 L320,260 L300,260 L300,320 L320,320 L320,400 L340,400 L340,420 L360,420 L360,400 L340,400 L340,300 L360,300 L360,280 L380,280 L380,260 L420,260 L420,240 L400,240 L400,200 L380,200 L380,180 Z M520,20 L480,20 L480,40 L460,40 L460,260 L440,260 L440,280 L460,280 L460,320 L480,320 L480,340 L500,340 L500,380 L520,380 L520,400 L540,400 L540,40 L520,40 L520,20 Z M100,80 L80,80 L80,60 L40,60 L40,80 L20,80 L20,280 L40,280 L40,320 L60,320 L60,520 L80,520 L80,560 L100,560 L100,580 L120,580 L120,600 L140,600 L140,620 L160,620 L160,640 L180,640 L180,660 L400,660 L400,640 L420,640 L420,620 L440,620 L440,600 L460,600 L460,580 L480,580 L480,560 L500,560 L500,540 L460,540 L460,520 L440,520 L440,480 L420,480 L420,460 L340,460 L340,440 L320,440 L320,420 L300,420 L300,340 L280,340 L280,440 L260,440 L260,460 L180,460 L180,440 L160,440 L160,280 L100,280 L100,80 Z" id="Combined-Shape" fill="#FF006A" fill-rule="nonzero"></path>
        </g>
    </g>
</svg>