<?xml version="1.0" standalone="no"?>
<!DOCTYPE svg PUBLIC "-//W3C//DTD SVG 20010904//EN"
 "http://www.w3.org/TR/2001/REC-SVG-20010904/DTD/svg10.dtd">
<svg version="1.0" xmlns="http://www.w3.org/2000/svg"
 width="680.000000pt" height="680.000000pt" viewBox="0 0 680.000000 680.000000"
 preserveAspectRatio="xMidYMid meet">
<metadata>
Created by potrace 1.11, written by Peter Selinger 2001-2013
</metadata>
<g transform="translate(0.000000,680.000000) scale(0.100000,-0.100000)"
fill="#000000" stroke="none">
<path d="M5199 6768 c0 -18 0 -64 1 -102 1 -65 0 -68 -19 -63 -12 3 -21 2 -21
-2 0 -4 -19 -5 -42 -2 -24 3 -60 5 -81 3 -37 -3 -38 -4 -37 -40 1 -20 1 -41 0
-47 -2 -13 -2 -128 1 -141 1 -5 0 -13 -1 -19 -2 -10 -1 -128 1 -143 1 -4 0
-11 -1 -17 -2 -12 -2 -128 1 -141 1 -5 0 -13 -1 -19 -2 -10 -1 -128 1 -143 1
-4 0 -11 -1 -17 -2 -12 -2 -128 1 -141 1 -5 0 -13 -1 -19 -2 -10 -1 -128 1
-143 1 -4 0 -11 -1 -17 -2 -12 -2 -128 1 -141 1 -5 0 -13 -1 -19 -2 -10 -1
-128 1 -143 1 -4 0 -11 -1 -17 -2 -12 -2 -128 1 -141 1 -5 0 -13 -1 -19 -2
-10 -1 -128 1 -143 1 -4 0 -11 -1 -17 -2 -12 -2 -128 1 -141 1 -5 0 -13 -1
-19 -1 -5 -1 -43 -1 -83 l2 -73 -101 2 -100 1 0 87 c0 47 0 94 -1 104 0 9 0
56 1 104 1 47 -3 90 -9 96 -5 5 -50 9 -101 8 l-91 -1 1 77 c2 124 3 123 -22
123 -113 0 -162 1 -170 6 -4 3 -8 1 -8 -5 0 -6 -6 -8 -14 -5 -21 8 -106 10
-106 2 0 -4 -12 -3 -27 1 -16 5 -37 5 -48 1 -11 -4 -24 -5 -29 -2 -13 7 -75 7
-82 -1 -3 -3 -16 -2 -28 2 -34 13 -63 -3 -68 -39 -3 -17 -1 -33 4 -36 5 -3 6
-10 2 -15 -3 -5 -6 -30 -6 -54 0 -25 -3 -47 -7 -50 -5 -2 -49 -5 -100 -6 -77
-1 -91 -4 -91 -18 -1 -9 -2 -97 -3 -196 l-2 -180 -198 -3 -199 -2 2 37 c1 21
2 111 1 201 l-1 162 -98 0 -98 0 -1 50 c-1 27 -4 54 -7 59 -4 5 -2 12 3 15 5
3 6 20 2 37 -8 38 -14 40 -141 39 -52 0 -101 -1 -107 0 -7 0 -34 0 -60 0 -51
-1 -76 0 -136 3 -20 1 -37 -1 -37 -5 0 -4 -6 -5 -14 -2 -7 3 -34 6 -60 7 l-47
2 1 -40 c1 -22 1 -44 0 -50 -1 -5 -1 -34 0 -63 l2 -54 -54 2 c-123 4 -147 1
-147 -17 0 -10 -1 -54 -1 -98 l-1 -81 -32 -3 c-18 -2 -41 -3 -52 -3 -111 5
-134 0 -116 -22 6 -7 9 -15 6 -18 -4 -4 -5 -70 -4 -188 0 -26 0 -114 -1 -132
-1 -54 -1 -65 0 -83 1 -11 1 -50 0 -88 l-2 -67 -196 2 -197 3 -5 48 c-4 26 -4
50 -1 52 6 7 3 234 -4 245 -3 5 -1 11 4 15 6 3 7 16 3 28 -4 12 -5 42 -2 67 3
25 2 62 -1 82 -3 21 -4 40 -1 43 7 7 4 224 -4 236 -3 5 -2 9 3 9 8 0 8 93 -1
115 -2 7 -2 16 1 19 8 7 5 164 -2 177 -4 5 -3 9 2 9 8 0 8 93 -1 115 -2 7 -2
16 1 19 7 7 6 174 -2 186 -3 5 -1 11 4 15 6 3 7 16 3 28 -4 12 -5 42 -2 67 3
25 2 62 -1 82 -3 21 -4 40 -1 43 3 3 4 56 3 117 -4 188 1 172 -53 178 -26 3
-54 3 -63 0 -9 -3 -31 -4 -49 -2 -31 4 -33 7 -35 45 -2 23 -2 48 -2 55 1 16 1
41 0 75 0 31 49 28 -417 28 -161 0 -297 -3 -302 -6 -6 -3 -10 -2 -10 2 0 5
-16 7 -35 5 l-35 -4 0 -62 c-1 -151 5 -134 -49 -138 -27 -1 -61 -1 -77 2 -16
3 -39 4 -52 2 l-22 -4 0 -1199 0 -1199 99 0 100 0 -2 -40 c-2 -22 1 -40 5 -40
3 0 3 -13 -2 -29 -4 -16 -6 -31 -4 -33 4 -5 5 -44 3 -111 -1 -26 1 -50 4 -54
4 -3 2 -14 -3 -24 -6 -10 -6 -20 -1 -23 5 -3 7 -15 4 -26 -6 -22 -6 -22 134
-21 l62 0 0 -995 c0 -546 2 -998 6 -1004 3 -5 16 -6 28 -2 12 4 54 5 92 2 l70
-5 4 -50 c1 -27 2 -61 2 -75 0 -14 0 -68 0 -120 1 -52 1 -107 0 -122 0 -16 5
-28 12 -29 7 0 51 0 98 1 l87 1 2 -88 c1 -48 2 -94 3 -100 0 -14 0 -14 112
-16 l80 -2 2 -75 c1 -41 2 -85 2 -96 1 -15 9 -23 26 -26 14 -3 25 -2 25 1 0 3
33 4 72 1 l73 -5 6 -38 c3 -20 3 -37 -1 -37 -3 0 -5 -15 -3 -32 2 -18 4 -46 4
-61 2 -25 6 -28 38 -27 132 2 162 0 160 -12 -1 -7 -1 -52 0 -99 1 -84 2 -87
26 -91 14 -3 25 -1 25 3 0 5 10 5 23 0 12 -5 31 -5 42 -1 11 4 25 6 30 4 6 -1
22 -5 36 -8 24 -5 25 -8 19 -54 -3 -27 -3 -61 1 -75 4 -15 3 -29 -1 -32 -5 -3
-7 -12 -3 -20 4 -13 171 -15 1304 -15 l1299 0 0 100 0 100 53 -1 c147 0 145
-1 149 29 2 15 1 38 -2 50 -3 13 -3 44 -2 71 l4 47 86 3 c48 1 93 3 100 3 8 1
12 19 13 52 0 28 1 71 2 96 l2 45 94 2 c51 1 95 4 97 6 3 2 5 48 6 101 l1 96
81 -2 c82 -1 130 7 122 21 -3 4 -5 23 -6 42 -2 138 -1 139 42 139 12 0 47 0
76 0 29 0 59 1 65 3 9 1 13 58 17 197 l5 195 45 2 c25 1 68 2 97 2 42 1 52 4
52 18 0 28 0 156 0 178 0 11 0 61 1 110 0 50 1 113 1 140 0 28 0 69 1 91 0 23
-2 46 -5 52 -4 6 8 12 29 14 19 2 37 1 40 -3 2 -4 18 -4 34 1 17 5 30 6 30 2
0 -4 16 -7 35 -7 l35 0 0 2301 0 2302 -36 4 c-19 2 -38 0 -40 -4 -3 -5 -9 -6
-14 -3 -5 3 -31 6 -59 6 l-50 2 1 87 c0 49 -3 93 -6 99 -5 8 -129 11 -402 11
l-394 0 -1 -32z m360 -171 c28 -1 51 2 51 6 0 5 5 5 10 2 6 -4 49 -6 95 -6
l84 1 0 -66 c-1 -36 2 -68 4 -71 3 -3 2 -16 -3 -29 -6 -15 -6 -26 1 -30 6 -3
53 -6 105 -6 l94 -1 2 -36 c0 -20 0 -43 -1 -51 -1 -8 -1 -60 -1 -115 1 -55 1
-109 1 -120 0 -11 0 -65 0 -120 0 -119 0 -110 -2 -160 0 -22 0 -44 1 -50 1 -5
2 -13 1 -17 -2 -15 -3 -133 -1 -143 1 -5 2 -13 1 -17 -2 -15 -3 -133 -1 -143
1 -5 2 -13 1 -17 -2 -15 -3 -133 -1 -143 1 -5 2 -14 1 -19 -1 -5 -2 -48 -1
-95 1 -47 1 -97 1 -111 0 -14 0 -70 0 -125 0 -55 0 -109 0 -120 0 -11 0 -65 0
-120 0 -119 0 -110 -2 -160 0 -22 0 -44 1 -50 1 -5 2 -13 1 -17 -2 -15 -3
-133 -1 -143 1 -5 2 -13 1 -17 -2 -15 -3 -133 -1 -143 1 -5 2 -13 1 -17 -2
-15 -3 -133 -1 -143 1 -5 2 -14 1 -19 -1 -5 -2 -48 -1 -95 1 -47 1 -97 1 -111
0 -14 0 -70 0 -125 0 -55 0 -109 0 -120 0 -11 0 -65 0 -120 0 -119 0 -110 -2
-160 0 -22 0 -44 1 -50 1 -5 2 -13 1 -17 -4 -29 -4 -138 0 -143 3 -3 3 -24 0
-48 -3 -23 -4 -60 -1 -82 3 -22 3 -52 1 -67 l-3 -27 -99 0 -98 0 0 82 c0 45 0
90 0 99 -1 14 -14 17 -88 17 -49 0 -94 0 -102 0 -7 1 -11 7 -8 16 4 8 2 17 -4
20 -5 4 -6 11 -3 17 7 12 9 166 2 173 -2 3 -1 30 2 60 3 31 3 58 0 60 -4 2 -5
18 -2 36 4 28 3 30 -15 20 -11 -5 -23 -8 -26 -5 -3 3 -38 6 -78 7 l-74 2 -2
84 c-2 106 -5 112 -45 111 -128 -3 -157 0 -157 18 0 39 0 188 0 197 0 6 0 28
0 50 -1 151 6 135 -59 136 -31 1 -76 1 -99 1 -42 -1 -43 0 -44 31 -1 18 -1 36
0 41 1 5 2 35 2 67 l1 58 36 1 c52 1 67 1 108 -1 40 -1 55 9 55 37 0 10 0 60
0 109 0 50 0 97 0 105 0 8 0 33 0 55 0 22 0 47 0 55 0 8 0 56 0 105 0 120 0
114 0 160 0 22 0 47 0 55 0 8 0 56 0 105 0 120 0 114 0 160 0 22 0 47 0 55 0
8 0 56 0 105 0 120 0 114 0 160 0 22 0 47 0 55 0 8 0 56 0 105 0 120 0 114 0
160 0 22 0 47 0 55 0 8 0 56 0 105 0 120 0 114 0 160 0 22 0 47 0 55 1 21 0
191 0 217 -1 22 2 22 97 21 l97 -1 5 44 c3 24 2 61 -1 82 -4 20 -3 40 2 43 4
2 5 12 2 21 -5 13 1 15 35 11 23 -2 42 0 42 4 0 4 6 5 14 2 7 -3 37 -6 65 -7z
m-4160 -460 c2 -84 2 -104 -1 -119 -2 -9 15 -15 55 -18 31 -3 57 -3 57 1 0 3
19 3 43 0 40 -6 42 -8 44 -41 2 -63 3 -95 2 -110 0 -8 0 -60 1 -115 1 -55 1
-104 0 -110 -1 -5 -1 -57 0 -115 1 -58 1 -111 1 -117 -2 -28 -2 -46 -1 -118 1
-41 -1 -79 -5 -84 -3 -5 -1 -12 4 -15 5 -3 6 -21 1 -40 -4 -19 -4 -39 0 -46 4
-7 4 -27 0 -46 -4 -18 -6 -35 -3 -38 2 -2 4 -44 4 -93 -1 -48 -1 -115 -1 -148
0 -33 0 -71 0 -85 -5 -107 -4 -280 1 -280 3 0 3 -20 -1 -43 -3 -24 -4 -52 0
-61 3 -9 3 -44 0 -77 -3 -32 -2 -59 3 -59 4 0 6 -4 3 -9 -3 -5 -6 -31 -6 -57
0 -27 0 -60 0 -73 0 -20 4 -23 30 -19 17 3 30 2 30 -1 0 -3 118 -5 262 -4 211
2 265 0 273 -11 6 -8 8 -42 5 -82 -3 -38 -3 -85 0 -104 3 -19 3 -55 0 -80 -3
-25 -3 -62 1 -83 3 -21 2 -40 -2 -43 -5 -2 -4 -15 1 -28 5 -13 7 -26 5 -28 -3
-3 -6 -62 -5 -108 1 -8 0 -40 -1 -71 -1 -31 1 -61 5 -67 3 -6 2 -13 -3 -17 -6
-3 -7 -16 -3 -28 4 -12 5 -42 2 -67 -3 -25 -2 -62 1 -82 3 -21 4 -40 1 -43 -3
-2 -4 -49 -3 -102 1 -54 1 -127 0 -163 0 -36 0 -71 0 -77 0 -7 0 -38 0 -68 0
-30 0 -62 1 -70 0 -8 0 -21 0 -27 1 -7 0 -38 -1 -69 -2 -65 4 -79 34 -78 12 0
54 0 93 -1 l71 0 2 -73 c1 -39 1 -86 1 -104 1 -30 2 -31 30 -23 15 4 31 6 33
3 8 -7 717 -4 728 3 6 3 9 13 8 22 -1 10 0 22 1 27 1 6 1 40 0 78 -1 67 -1 67
27 68 15 1 33 0 38 -1 6 -1 30 -1 55 0 25 1 53 2 63 1 14 0 17 10 17 67 0 37
0 262 0 499 l0 433 42 0 c81 0 102 -1 106 -5 3 -2 13 0 23 5 13 8 19 6 22 -8
5 -15 9 -81 8 -107 -2 -39 -3 -92 -1 -100 1 -5 1 -30 1 -55 -1 -25 -1 -88 0
-140 0 -124 1 -114 -1 -200 -1 -41 -1 -79 0 -85 1 -5 1 -29 0 -51 -1 -23 4
-45 10 -49 13 -8 97 -11 104 -4 8 8 86 -3 81 -11 -3 -5 -1 -11 4 -14 5 -3 6
-21 2 -38 -4 -18 -4 -44 -1 -58 4 -14 3 -37 -1 -53 -7 -26 -6 -28 24 -27 18 0
64 1 104 0 l71 0 -2 -31 c-1 -16 1 -32 6 -35 4 -3 4 -15 -1 -27 -5 -12 -5 -31
-1 -42 4 -11 4 -28 -1 -37 -11 -21 1 -29 43 -28 18 1 196 1 396 0 l363 -2 0
-71 c0 -134 -3 -125 40 -129 21 -2 49 0 63 3 14 4 26 4 26 1 0 -4 18 -6 39 -6
36 2 39 0 32 -19 -4 -11 -5 -38 -1 -58 4 -21 5 -41 2 -44 -5 -5 -5 -114 -1
-143 1 -4 0 -11 -1 -17 -6 -27 -1 -98 8 -107 11 -11 85 -14 101 -4 6 4 11 3
11 -2 0 -5 17 -6 39 -2 l39 7 0 -100 c1 -54 3 -101 5 -103 2 -2 92 -4 200 -4
l197 -1 -2 -101 -1 -100 -29 4 c-16 3 -31 1 -33 -3 -3 -4 -20 -3 -39 1 -19 4
-38 5 -41 2 -3 -4 -16 -7 -28 -7 -25 0 -37 -35 -26 -82 4 -18 4 -35 1 -38 -3
-3 -6 -20 -6 -38 l-1 -32 -89 -2 c-49 -1 -93 -6 -98 -11 -6 -6 -10 -51 -10
-101 l1 -91 -42 -1 c-23 -1 -46 0 -52 1 -23 4 -95 1 -105 -5 -8 -5 -8 -11 -1
-19 6 -7 8 -16 5 -19 -4 -3 -6 -40 -5 -81 l1 -75 -62 -1 c-80 -1 -104 -1 -120
2 -14 3 -17 -21 -18 -125 0 -32 2 -62 5 -66 4 -8 -17 -9 -158 -11 -39 -1 -48
-4 -45 -18 1 -9 -1 -23 -6 -31 -7 -10 -6 -12 4 -6 9 6 11 4 5 -5 -5 -7 -7 -39
-6 -71 1 -31 -2 -60 -7 -63 -10 -6 -148 -8 -199 -3 -18 2 -33 -1 -33 -6 0 -4
-5 -5 -10 -2 -6 4 -54 6 -108 5 -94 -2 -117 -1 -174 4 -16 1 -28 -2 -28 -7 0
-4 -4 -6 -10 -2 -11 7 -269 9 -276 2 -3 -3 -18 -2 -32 2 -15 5 -36 5 -47 1
-11 -4 -25 -5 -30 -3 -23 8 -85 9 -85 1 0 -5 -4 -7 -10 -3 -11 7 -269 9 -277
2 -3 -3 -11 -3 -17 -1 -22 8 -96 10 -96 2 0 -4 -6 -5 -12 -3 -23 9 -148 10
-148 2 0 -5 -4 -5 -10 -2 -12 8 -189 9 -196 2 -3 -3 -18 -2 -32 2 -15 5 -36 5
-47 1 -11 -4 -25 -5 -30 -3 -23 8 -85 9 -85 1 0 -5 -4 -7 -10 -3 -5 3 -50 6
-99 7 l-90 1 -1 51 c-2 157 1 146 -39 147 -20 1 -40 0 -46 -1 -5 -1 -17 -2
-25 -2 -8 1 -31 2 -51 2 l-36 1 -2 50 c0 28 -3 55 -6 60 -4 5 -2 9 3 9 5 0 6
17 3 37 -6 35 -9 38 -46 43 -22 3 -55 2 -72 -1 -18 -4 -33 -3 -33 1 0 4 -12 5
-26 2 -23 -4 -26 -2 -24 24 6 83 -1 171 -12 172 -13 1 -117 2 -152 1 -25 0
-36 12 -36 41 0 36 -2 111 -4 139 -1 23 -2 24 -97 22 l-96 -2 -2 58 c-2 32 -3
77 -3 100 l0 43 -42 1 c-22 1 -45 0 -51 -1 -5 -2 -19 -2 -30 -1 -11 1 -33 3
-48 4 l-28 1 1 167 c1 93 -1 173 -4 178 -4 5 -2 12 3 16 21 13 -2 31 -42 34
-23 2 -51 4 -62 5 -11 1 -36 -1 -56 -5 l-37 -6 -1 116 c-1 64 -2 123 -2 131 1
8 1 44 0 80 0 36 0 72 0 80 1 8 1 44 0 80 0 36 0 72 0 80 1 8 1 44 0 80 0 36
0 72 0 80 1 8 1 44 0 80 0 36 0 72 0 80 1 8 1 44 0 80 0 36 0 72 0 80 1 8 1
44 0 80 0 36 0 72 0 80 1 8 1 44 0 80 0 36 0 71 0 78 1 14 1 85 1 140 0 20 -1
82 -1 137 0 55 0 109 0 120 0 11 0 56 0 100 1 150 3 143 -47 147 -24 2 -45 1
-47 -2 -2 -3 -26 -3 -54 -2 l-50 4 0 181 c0 100 -1 190 -1 199 0 9 -8 17 -17
17 -40 1 -61 2 -113 2 -76 0 -79 1 -74 14 8 20 10 175 2 175 -4 0 -3 13 2 29
4 16 6 32 3 34 -2 3 -4 45 -3 93 0 49 0 97 0 107 0 24 0 41 0 130 0 43 -2 82
-5 88 -4 5 -3 9 2 9 9 0 8 83 -1 106 -3 8 -2 14 2 14 6 0 7 100 2 220 0 21 -1
127 -1 178 0 6 0 41 0 77 0 36 0 73 1 83 0 31 -1 147 -2 162 0 8 0 26 1 40 0
14 1 36 1 50 0 14 2 60 3 103 1 42 -1 77 -5 77 -4 0 -5 6 -2 14 7 18 10 106 4
106 -3 0 -4 20 -2 44 3 37 8 45 28 49 13 2 24 1 24 -2 0 -7 116 -5 136 3 11 4
14 28 14 100 l0 95 199 0 199 0 1 -62z m2999 -1175 c0 -142 2 -161 20 -161 9
0 43 -1 75 -3 31 -2 57 0 57 4 0 4 10 4 23 -1 15 -6 24 -19 28 -45 3 -20 2
-39 -2 -41 -4 -3 -4 -18 1 -34 4 -16 6 -32 3 -35 -3 -3 -5 -27 -4 -53 1 -26 2
-54 2 -60 -5 -126 -4 -131 37 -132 15 -1 57 -2 94 -3 l66 -1 4 -56 c2 -31 2
-75 0 -98 l-3 -42 -191 0 c-111 0 -194 -3 -200 -9 -6 -6 -10 -51 -10 -101 l1
-90 -96 0 c-105 0 -116 -6 -103 -52 5 -15 6 -30 3 -33 -3 -2 -5 -30 -4 -61 l0
-57 -69 4 c-39 2 -70 1 -70 -3 0 -3 -13 -5 -30 -3 -24 3 -30 0 -31 -16 -1 -34
0 -120 1 -127 4 -26 0 -264 -4 -272 -4 -5 -2 -12 3 -15 5 -4 5 -21 0 -43 -4
-21 -8 -38 -8 -38 6 0 14 -87 9 -90 -4 -3 -4 -20 0 -39 4 -19 5 -37 2 -40 -7
-8 -5 -134 3 -146 3 -6 2 -10 -3 -10 -6 0 -7 -14 -2 -34 4 -19 4 -39 1 -45 -4
-6 -5 -26 -3 -45 4 -32 6 -34 40 -34 21 0 42 -1 47 -2 6 -1 34 -2 63 -2 l53 0
-3 -97 -3 -96 -97 -2 -97 -3 2 75 c1 41 0 75 -3 75 -3 0 -6 12 -5 28 0 19 -4
26 -15 24 -8 -2 -22 -3 -30 -3 -8 0 -45 1 -82 0 l-67 0 0 390 c1 215 -2 394
-5 399 -7 12 -56 22 -56 12 0 -5 -8 -6 -17 -4 -10 3 -40 6 -68 7 l-50 2 -2 55
c-1 30 -2 69 -3 85 -2 41 -2 233 0 270 0 17 2 64 3 105 2 70 3 74 27 80 14 4
35 4 47 1 12 -3 44 -4 71 -3 55 4 50 -8 55 137 l2 60 44 2 c24 1 50 4 57 7 7
3 16 2 18 -3 7 -10 65 -1 73 12 7 12 10 77 3 77 -6 0 -2 109 4 127 3 7 1 15
-5 18 -5 4 -7 11 -3 16 3 6 6 42 5 80 -1 69 -1 69 27 70 15 1 31 1 36 0 32 -6
120 -1 128 7 5 5 9 26 9 46 -2 41 -2 56 -1 108 l1 37 82 3 c112 4 115 3 115
-40z m-1398 -62 l0 -98 51 -4 c28 -1 53 1 56 5 2 4 14 5 26 1 12 -4 35 -7 50
-6 24 2 27 0 19 -14 -5 -10 -6 -29 -2 -44 4 -15 4 -33 0 -40 -4 -7 -4 -26 0
-41 5 -16 5 -31 0 -34 -4 -3 -5 -20 -1 -37 4 -18 5 -44 1 -58 -3 -14 -3 -42 1
-62 3 -21 3 -35 -1 -33 -5 3 -6 -4 -3 -16 4 -13 13 -20 27 -18 11 0 26 0 31
-1 6 -1 40 -1 77 -1 l67 1 0 -399 c0 -299 -3 -400 -12 -403 -7 -3 -23 -2 -37
2 -14 4 -36 3 -50 0 -14 -4 -34 -4 -45 0 -28 10 -55 1 -56 -19 0 -9 -1 -33 -2
-54 -1 -20 1 -37 5 -37 4 0 5 -6 2 -14 -8 -21 -10 -106 -2 -106 4 0 5 -6 2
-14 -8 -21 -10 -106 -2 -106 4 0 5 -6 2 -14 -8 -21 -10 -106 -2 -106 4 0 5 -6
2 -14 -8 -21 -10 -106 -2 -106 4 0 5 -6 2 -14 -8 -21 -10 -106 -2 -106 4 0 5
-6 2 -14 -7 -19 -10 -106 -3 -106 3 0 3 -22 -1 -50 -3 -27 -3 -55 1 -62 4 -7
3 -23 -2 -36 -7 -19 -16 -23 -46 -22 -21 1 -64 2 -96 1 l-59 -1 2 -43 c1 -23
1 -68 1 -101 -1 -53 -3 -58 -21 -53 -11 3 -20 1 -20 -5 0 -5 -5 -6 -11 -2 -6
3 -57 5 -112 4 -98 -1 -118 -1 -197 3 l-35 2 -2 85 c-2 114 -1 109 -20 108
-10 0 -55 1 -100 2 l-83 2 0 92 c-1 50 -1 100 -1 111 0 11 0 54 0 95 0 41 -1
80 0 85 0 6 0 62 0 125 1 157 1 220 2 228 1 4 1 12 0 17 -1 6 -2 37 -2 70 1
33 1 121 1 195 -1 74 -1 142 -1 150 0 8 0 49 0 90 0 41 -1 80 0 85 0 6 0 62 0
125 1 157 1 220 2 228 1 4 1 12 -1 17 -2 11 -1 117 3 215 l2 65 90 2 c113 3
117 7 103 112 0 3 0 26 1 50 1 33 4 42 16 38 8 -4 17 -2 20 3 3 5 18 5 33 1
15 -4 38 -5 52 -1 14 4 32 3 41 -1 31 -16 39 5 41 104 l1 97 98 -1 99 0 0 -99z
m1800 -959 c-3 -112 0 -142 13 -140 6 1 51 1 98 0 l87 -1 0 -67 c0 -38 1 -72
2 -78 1 -5 1 -14 0 -20 -4 -23 -1 -136 5 -144 3 -5 1 -12 -5 -16 -6 -4 -7 -12
-3 -18 4 -6 6 -23 5 -37 -2 -23 1 -25 36 -23 20 1 39 2 42 3 3 2 10 1 15 0 6
-1 32 -2 59 -1 39 1 47 -2 42 -14 -3 -8 -2 -15 2 -15 4 0 5 -34 2 -76 -3 -42
-3 -79 0 -84 3 -5 41 -8 85 -9 44 0 85 -1 90 -2 6 -1 13 -1 17 0 8 1 9 -19 9
-211 0 -95 -1 -144 -2 -156 -4 -26 5 -31 59 -31 147 1 143 2 139 -28 -2 -16 0
-43 4 -60 4 -18 3 -33 -1 -33 -5 0 -5 -12 -1 -27 4 -16 6 -34 4 -40 -3 -9 8
-13 34 -14 21 0 65 -1 98 -2 l60 -2 2 -80 c1 -44 3 -87 5 -95 4 -20 34 -27 83
-20 22 3 56 3 76 0 35 -5 35 -5 35 -55 -1 -27 2 -62 6 -77 3 -15 3 -30 -2 -33
-5 -3 -7 -12 -3 -20 5 -15 -40 -20 -154 -15 l-43 2 0 -54 c-1 -29 -1 -164 -1
-301 l0 -247 -82 0 c-45 0 -102 0 -127 -1 -25 0 -49 0 -55 1 -5 1 -38 2 -73 2
l-63 -1 3 100 3 99 -30 0 c-16 -1 -62 -1 -102 0 l-72 1 -1 72 c-1 39 -1 77 -1
82 -1 6 0 21 1 35 1 14 1 54 0 90 -1 36 -1 70 0 75 6 26 -2 44 -17 44 -10 -1
-44 0 -75 1 -31 1 -61 -1 -67 -4 -5 -4 -12 -2 -16 4 -4 6 -10 8 -15 5 -4 -3
-10 13 -12 35 -2 22 -1 40 2 40 3 0 4 26 4 57 l-2 58 -43 3 c-24 1 -69 3 -99
5 -62 2 -57 -9 -61 129 l-2 66 -39 4 c-21 2 -38 0 -38 -4 0 -4 -7 -5 -15 -2
-8 4 -34 7 -57 8 -41 1 -43 2 -49 39 -3 21 -2 40 3 43 4 3 6 9 4 13 -3 4 -6
28 -7 54 -3 43 -5 47 -28 48 -14 0 -57 1 -96 2 l-70 2 -2 94 c-3 94 -13 121
-39 101 -6 -6 -13 -8 -16 -5 -2 2 -37 5 -76 6 l-72 2 -1 191 c0 105 0 199 1
209 1 29 1 60 0 120 0 32 2 62 5 66 2 5 44 9 91 9 48 0 91 5 96 10 5 5 9 50 9
101 l0 92 52 -2 c29 -1 57 0 62 1 6 1 27 1 47 0 36 -1 37 0 40 37 2 21 0 57
-3 81 -3 23 -2 42 2 42 4 0 5 9 2 20 -5 20 -2 21 96 19 l102 -3 -1 -55z m-466
-1342 l64 0 -1 -97 -2 -97 -35 -2 c-51 -2 -91 -3 -127 -2 -28 1 -33 5 -34 28
-1 14 -1 30 0 35 1 6 2 39 2 74 0 63 1 64 25 59 13 -2 24 0 24 5 0 5 5 6 10 3
6 -3 39 -6 74 -6z"/>
</g>
</svg>
